# xmcd
# Copyright (C) 1995-1998 Ti Kan
#
# Track frame offsets:
#       150
#       16185
#       31301
#       41543
#       58774
#       81080
#       102306
#       121018
#       140486
#       153601
#       172846
#       195672
#       211833
#       227957
#       242793
#       259702
#       275617
#
# Disc length: 3841 seconds
#
# Revision: 0
# Processed by: cddbd v1.5.1PL0 Copyright (c) Steve Scherf et al.
# Submitted via: CD-Transfer v1.0
#
DISCID=e30eff11
DTITLE=Calanda Oil Company Steelband - Patrik Berhard
DYEAR=04
DGENRE=
TTITLE0=Ban Moin An Ti Bo
TTITLE1=Let's Go Loud
TTITLE2=Some Steelsound
TTITLE3=Yellow Bird
TTITLE4=Reggae Mix
TTITLE5=The Girl From Ipanema
TTITLE6=Steel It Again
TTITLE7=Jamaica Farewell
TTITLE8=Guantanamera
TTITLE9=Rock'n'roll Medley
TTITLE10=My Heart Will Go On
TTITLE11=Tobago Bird
TTITLE12=Michelle
TTITLE13=In The Mood
TTITLE14=Stand By Me
TTITLE15=Femmes Martinique Douces
TTITLE16=Calypso Steelband
EXTD=
EXTT0=
EXTT1=
EXTT2=
EXTT3=
EXTT4=
EXTT5=
EXTT6=
EXTT7=
EXTT8=
EXTT9=
EXTT10=
EXTT11=
EXTT12=
EXTT13=
EXTT14=
EXTT15=
EXTT16=
PLAYORDER=
